<?xml version="1.0" encoding="utf-8"?>
<!-- Generator: Adobe Illustrator 27.1.0, SVG Export Plug-In . SVG Version: 6.00 Build 0)  -->
<svg version="1.1" id="Layer_2" xmlns="http://www.w3.org/2000/svg" xmlns:xlink="http://www.w3.org/1999/xlink" x="0px" y="0px"
	 viewBox="0 0 134 38" style="enable-background:new 0 0 134 38;" xml:space="preserve">
<style type="text/css">
	.st0{fill:#0099AA;}
	.st1{fill:#FFFFFF;}
</style>
<g>
	<path class="st0" d="M48.1,36.7c-0.4,0-0.8,0-1.2,0c-4.2,0-8.4,0-12.6,0c-0.3,0-0.7-0.2-0.9-0.4c-2.4-3-4.7-6.1-7-9.2
		c-1.2-1.5-0.8-1.5-2-0.2c-4.5,4.9-9,9.9-13.6,14.8c-0.9,1-1.8,2-2.8,3C8,44.8,7.9,44.9,7.7,45c0,0-0.1-0.1-0.1-0.1
		c0.4-0.5,0.8-1,1.2-1.5c4.9-5.7,9.9-11.4,14.8-17.2c0.5-0.5,1-1,1.4-1.6c0.3-0.4,0.5-0.3,0.9,0c2.6,2.6,5.2,5.2,7.7,7.9
		c0.4,0.5,0.9,0.6,1.5,0.6c1.6-0.1,3.1-0.1,4.7-0.1c0.2,0,0.4-0.1,0.6-0.2c-0.1-0.2-0.2-0.5-0.3-0.6c-3.5-4.3-7.1-8.5-10.6-12.8
		c-0.5-0.6-0.5-0.7,0-1.3c5.2-5.8,10.4-11.6,15.6-17.3c4.3-4.7,8.5-9.4,12.8-14.1c2.3-2.5,4.5-5,6.8-7.5c0.1-0.1,0.2-0.1,0.3-0.2
		c0,0,0.1,0.1,0.1,0.1c-0.1,0.2-0.2,0.3-0.3,0.5c-3.9,4.9-7.9,9.7-11.8,14.6C49.3-1.5,45.8,3,42.1,7.5c-2.9,3.5-5.7,7.1-8.6,10.6
		c-0.6,0.7-0.6,0.7,0,1.4c4.2,4.8,8.4,9.7,12.6,14.5c0.7,0.8,1.4,1.6,2.1,2.5C48.2,36.5,48.1,36.6,48.1,36.7z"/>
	<path class="st0" d="M-16.5,56.3c0.8-1,1.7-2,2.5-3c2.7-3.2,5.4-6.3,8.2-9.5c7-8.1,14-16.3,21-24.4c0.9-1,0.9-1,0-2
		c-2.8-3.1-5.5-6.3-8.3-9.4C5,5.7,3.2,3.4,1.3,1.1C1.1,1,1,0.8,0.7,0.5c0.3,0,0.6-0.1,0.8-0.1c4.3,0,8.6,0,13,0c0.6,0,1,0.2,1.3,0.7
		c2.4,3.2,4.9,6.4,7.3,9.6c0.5,0.7,0.5,0.7,1,0.1C28.4,5.7,32.7,0.6,37-4.5c0.2-0.2,0.4-0.4,0.5-0.6c0,0,0.1,0.1,0.1,0.1
		c-0.3,0.4-0.6,0.9-1,1.4c-4,5.1-8,10.1-12,15.2c-1.1,1.4-1.1,1.3-2.3,0.1c-2.4-2.5-4.8-5-7.3-7.4C14.9,4.1,14.6,4,14.3,4
		C12.6,4,10.9,4,9.2,4.1C9,4.1,8.8,4.2,8.7,4.3c0.1,0.2,0.2,0.4,0.3,0.6c2.5,3,5.1,6,7.6,9c1.1,1.3,2.1,2.6,3.2,3.9
		c0.3,0.4,0.3,0.7,0,1c-2.8,2.9-5.5,5.7-8.3,8.6C5.9,33.3,0.3,39.1-5.2,44.9c-3,3.1-6,6.3-9,9.5c-0.7,0.7-1.4,1.4-2.1,2.1
		C-16.4,56.4-16.4,56.3-16.5,56.3z"/>
</g>
<g>
	<path class="st1" d="M57.4,16.2v13.9h-5.5V16.2h-4.2v-5.6h14v5.6H57.4z"/>
	<path class="st1" d="M69.1,15.9v14.2h-5.5V10.7h7.1c2.2,0,3.8,0.6,5,1.7c1.3,1.3,2,2.8,2,4.8c0,2-0.8,3.6-2.5,5l3.2,8h-5.8L70,23.8
		v-5h0.4c1.2,0,1.7-0.5,1.7-1.6c0-0.9-0.7-1.4-2-1.4H69.1z"/>
	<path class="st1" d="M90.2,18.2v4.3h-3.6c-0.5,0-0.8,0.1-1,0.2s-0.3,0.4-0.3,0.8c0,0.4,0.1,0.7,0.3,0.8c0.2,0.1,0.6,0.2,1.3,0.2
		h3.7v5.6h-4.3c-2,0-3.6-0.5-4.7-1.5c-1.1-1-1.6-2.5-1.6-4.4v-7.6c0-1.9,0.5-3.3,1.5-4.3c1-1,2.5-1.5,4.3-1.5h4.8v5.6H87
		c-1,0-1.4,0.3-1.4,1c0,0.4,0.1,0.6,0.3,0.8c0.2,0.1,0.6,0.2,1.2,0.2H90.2z"/>
	<path class="st1" d="M100.4,20.4v5.1h-1.6v4.6h-5.5V17.7c0-2.4,0.6-4.3,1.9-5.6s3-2,5.3-2c2.2,0,3.8,0.6,4.8,1.8
		c1,1.2,1.6,3.1,1.6,5.6v12.6h-5.5V17.9c0-0.8-0.1-1.3-0.3-1.6s-0.5-0.4-0.9-0.4c-0.9,0-1.3,0.7-1.3,2v2.4H100.4z"/>
	<path class="st1" d="M109.8,30.1v-14c0-1.7,0.5-3.2,1.5-4.3c1-1.1,2.3-1.7,3.9-1.7c1.9,0,3.4,0.9,4.4,2.8c0.6-1,1.3-1.7,2-2.1
		c0.7-0.4,1.6-0.6,2.7-0.6c1.7,0,2.9,0.6,3.8,1.7c0.9,1.1,1.3,2.7,1.3,4.8v13.5h-5.5V17.5c0-0.6,0-1-0.1-1.2
		c-0.1-0.2-0.3-0.3-0.6-0.3c-0.5,0-0.8,0.5-0.8,1.5v12.8h-5.5V17.5c0-0.6,0-1-0.1-1.2c-0.1-0.2-0.3-0.3-0.6-0.3
		c-0.5,0-0.8,0.5-0.8,1.6v12.7H109.8z"/>
</g>
</svg>
